<svg xmlns="http://www.w3.org/2000/svg" viewBox="0 0 840 930">
  <defs>
    <style>
      .cls-1, .cls-2 {
        fill: none;
        stroke-miterlimit: 10;
      }

      .cls-1 {
        stroke: blue;
        stroke-width: 4px;
      }

      .cls-2 {
        stroke: #ff7bac;
        stroke-width: 8px;
      }
    </style>
  </defs>
  <title>board</title>
  <g id="Layer_1" data-name="Layer 1">
    <g>
      <line class="cls-1" x1="163" y1="653" x2="163" y2="757"/>
      <line class="cls-1" x1="157" y1="651" x2="161" y2="651"/>
      <line class="cls-1" x1="157" y1="759" x2="161" y2="759"/>
      <line class="cls-1" x1="139" y1="759" x2="143" y2="759"/>
      <line class="cls-1" x1="79" y1="651" x2="83" y2="651"/>
      <line class="cls-1" x1="83" y1="647" x2="157" y2="647"/>
      <line class="cls-1" x1="77" y1="653" x2="77" y2="667"/>
      <line class="cls-1" x1="79" y1="669" x2="83" y2="669"/>
      <line class="cls-1" x1="83" y1="673" x2="132" y2="673"/>
      <line class="cls-1" x1="132" y1="677" x2="135" y2="677"/>
      <line class="cls-1" x1="137" y1="679" x2="137" y2="757"/>
      <line class="cls-1" x1="143" y1="763" x2="157" y2="763"/>
    </g>
    <g>
      <line class="cls-1" x1="677" y1="653" x2="677" y2="757"/>
      <line class="cls-1" x1="683" y1="651" x2="679" y2="651"/>
      <line class="cls-1" x1="683" y1="759" x2="679" y2="759"/>
      <line class="cls-1" x1="701" y1="759" x2="697" y2="759"/>
      <line class="cls-1" x1="761" y1="651" x2="757" y2="651"/>
      <line class="cls-1" x1="757" y1="647" x2="683" y2="647"/>
      <line class="cls-1" x1="763" y1="653" x2="763" y2="667"/>
      <line class="cls-1" x1="761" y1="669" x2="757" y2="669"/>
      <line class="cls-1" x1="757" y1="673" x2="708" y2="673"/>
      <line class="cls-1" x1="708" y1="677" x2="705" y2="677"/>
      <line class="cls-1" x1="703" y1="679" x2="703" y2="757"/>
      <line class="cls-1" x1="697" y1="763" x2="683" y2="763"/>
    </g>
    <g>
      <line class="cls-1" x1="229" y1="740" x2="233" y2="740"/>
      <line class="cls-1" x1="233" y1="736" x2="247" y2="736"/>
      <line class="cls-1" x1="247" y1="740" x2="251" y2="740"/>
      <g>
        <line class="cls-1" x1="83" y1="827" x2="220" y2="827"/>
        <line class="cls-1" x1="220" y1="823" x2="225" y2="823"/>
        <line class="cls-1" x1="227" y1="821" x2="227" y2="742"/>
        <line class="cls-1" x1="253" y1="821" x2="253" y2="742"/>
        <line class="cls-1" x1="255" y1="823" x2="260" y2="823"/>
        <line class="cls-1" x1="260" y1="827" x2="337" y2="827"/>
        <line class="cls-1" x1="79" y1="831" x2="83" y2="831"/>
        <line class="cls-1" x1="77" y1="833" x2="77" y2="848"/>
        <line class="cls-1" x1="79" y1="850" x2="83" y2="850"/>
        <line class="cls-1" x1="83" y1="854" x2="337" y2="854"/>
        <line class="cls-1" x1="337" y1="831" x2="341" y2="831"/>
        <line class="cls-1" x1="343" y1="833" x2="343" y2="848"/>
        <line class="cls-1" x1="337" y1="850" x2="341" y2="850"/>
      </g>
    </g>
    <g>
      <line class="cls-1" x1="611" y1="740" x2="607" y2="740"/>
      <line class="cls-1" x1="607" y1="736" x2="593" y2="736"/>
      <line class="cls-1" x1="593" y1="740" x2="589" y2="740"/>
      <g>
        <line class="cls-1" x1="757" y1="827" x2="620" y2="827"/>
        <line class="cls-1" x1="620" y1="823" x2="615" y2="823"/>
        <line class="cls-1" x1="613" y1="821" x2="613" y2="742"/>
        <line class="cls-1" x1="587" y1="821" x2="587" y2="742"/>
        <line class="cls-1" x1="585" y1="823" x2="580" y2="823"/>
        <line class="cls-1" x1="580" y1="827" x2="503" y2="827"/>
        <line class="cls-1" x1="761" y1="831" x2="757" y2="831"/>
        <line class="cls-1" x1="763" y1="833" x2="763" y2="848"/>
        <line class="cls-1" x1="761" y1="850" x2="757" y2="850"/>
        <line class="cls-1" x1="757" y1="854" x2="503" y2="854"/>
        <line class="cls-1" x1="503" y1="831" x2="499" y2="831"/>
        <line class="cls-1" x1="497" y1="833" x2="497" y2="848"/>
        <line class="cls-1" x1="503" y1="850" x2="499" y2="850"/>
      </g>
    </g>
    <line class="cls-1" x1="402" y1="17" x2="405" y2="17"/>
    <line class="cls-1" x1="407" y1="19" x2="407" y2="127"/>
    <line class="cls-1" x1="409" y1="129" x2="413" y2="129"/>
    <line class="cls-1" x1="413" y1="133" x2="428" y2="133"/>
    <line class="cls-1" x1="428" y1="129" x2="432" y2="129"/>
    <line class="cls-1" x1="434" y1="19" x2="434" y2="127"/>
    <line class="cls-1" x1="436" y1="17" x2="439" y2="17"/>
    <line class="cls-1" x1="439" y1="13" x2="822" y2="13"/>
    <line class="cls-1" x1="15" y1="2" x2="825" y2="2"/>
    <line class="cls-1" x1="825" y1="6" x2="832" y2="6"/>
    <line class="cls-1" x1="834" y1="8" x2="834" y2="15"/>
    <line class="cls-1" x1="822" y1="17" x2="825" y2="17"/>
    <line class="cls-1" x1="838" y1="15" x2="838" y2="285"/>
    <line class="cls-1" x1="834" y1="285" x2="834" y2="293"/>
    <line class="cls-1" x1="825" y1="295" x2="832" y2="295"/>
    <line class="cls-1" x1="827" y1="19" x2="827" y2="281"/>
    <line class="cls-1" x1="825" y1="283" x2="821" y2="283"/>
    <line class="cls-1" x1="683" y1="287" x2="821" y2="287"/>
    <line class="cls-1" x1="679" y1="291" x2="683" y2="291"/>
    <line class="cls-1" x1="690" y1="299" x2="825" y2="299"/>
    <line class="cls-1" x1="688" y1="301" x2="688" y2="390"/>
    <line class="cls-1" x1="690" y1="392" x2="840" y2="392"/>
    <line class="cls-1" x1="677" y1="293" x2="677" y2="397"/>
    <line class="cls-1" x1="679" y1="399" x2="683" y2="399"/>
    <line class="cls-1" x1="683" y1="403" x2="840" y2="403"/>
    <line class="cls-1" x1="8" y1="6" x2="15" y2="6"/>
    <line class="cls-1" x1="6" y1="8" x2="6" y2="15"/>
    <line class="cls-1" x1="15" y1="17" x2="19" y2="17"/>
    <line class="cls-1" x1="13" y1="19" x2="13" y2="281"/>
    <line class="cls-1" x1="2" y1="16" x2="2" y2="285"/>
    <line class="cls-1" x1="6" y1="285" x2="6" y2="293"/>
    <line class="cls-1" x1="8" y1="295" x2="16" y2="295"/>
    <line class="cls-1" x1="15" y1="283" x2="19" y2="283"/>
    <line class="cls-1" x1="19" y1="287" x2="158" y2="287"/>
    <line class="cls-1" x1="158" y1="291" x2="161" y2="291"/>
    <line class="cls-1" x1="158" y1="399" x2="161" y2="399"/>
    <line class="cls-1" y1="403" x2="158" y2="403"/>
    <line class="cls-1" x1="163" y1="293" x2="163" y2="397"/>
    <line class="cls-1" y1="392" x2="150" y2="392"/>
    <line class="cls-1" x1="152" y1="300" x2="152" y2="390"/>
    <line class="cls-1" x1="16" y1="298" x2="150" y2="298"/>
    <g>
      <line class="cls-1" x1="317" y1="375" x2="317" y2="495"/>
      <line class="cls-1" x1="319" y1="493" x2="521" y2="493"/>
      <line class="cls-1" x1="523" y1="375" x2="523" y2="495"/>
      <line class="cls-1" x1="319" y1="377" x2="390" y2="377"/>
      <line class="cls-1" x1="327" y1="389" x2="390" y2="389"/>
      <line class="cls-1" x1="388" y1="379" x2="388" y2="387"/>
      <line class="cls-1" x1="329" y1="391" x2="329" y2="484"/>
      <line class="cls-1" x1="331" y1="482" x2="510" y2="482"/>
      <line class="cls-1" x1="512" y1="386" x2="512" y2="484"/>
      <line class="cls-1" x1="450" y1="388" x2="510" y2="388"/>
      <line class="cls-1" x1="452" y1="386" x2="452" y2="375"/>
      <line class="cls-1" x1="454" y1="377" x2="521" y2="377"/>
    </g>
    <line class="cls-2" x1="390" y1="383" x2="450" y2="383"/>
    <line class="cls-1" y1="467" x2="158" y2="467"/>
    <line class="cls-1" x1="158" y1="471" x2="161" y2="471"/>
    <line class="cls-1" x1="163" y1="473" x2="163" y2="577"/>
    <line class="cls-1" x1="158" y1="579" x2="161" y2="579"/>
    <line class="cls-1" x1="19" y1="583" x2="158" y2="583"/>
    <line class="cls-1" x1="152" y1="480" x2="152" y2="570"/>
    <line class="cls-1" y1="478" x2="150" y2="478"/>
    <line class="cls-1" x1="15" y1="572" x2="150" y2="572"/>
    <line class="cls-1" x1="19" y1="587" x2="15" y2="587"/>
    <line class="cls-1" x1="15" y1="576" x2="8" y2="576"/>
    <line class="cls-1" x1="6" y1="578" x2="6" y2="585"/>
    <line class="cls-1" x1="13" y1="589" x2="13" y2="731"/>
    <line class="cls-1" x1="2" y1="585" x2="2" y2="915"/>
    <line class="cls-1" x1="19" y1="737" x2="68" y2="737"/>
    <line class="cls-1" x1="15" y1="733" x2="19" y2="733"/>
    <line class="cls-1" x1="68" y1="741" x2="72" y2="741"/>
    <line class="cls-1" x1="74" y1="743" x2="74" y2="757"/>
    <line class="cls-1" x1="68" y1="759" x2="72" y2="759"/>
    <line class="cls-1" x1="68" y1="763" x2="19" y2="763"/>
    <line class="cls-1" x1="15" y1="767" x2="19" y2="767"/>
    <line class="cls-1" x1="13" y1="769" x2="13" y2="911"/>
    <line class="cls-1" x1="15" y1="913" x2="19" y2="913"/>
    <line class="cls-1" x1="6" y1="915" x2="6" y2="922"/>
    <line class="cls-1" x1="8" y1="924" x2="15" y2="924"/>
    <line class="cls-1" x1="19" y1="917" x2="821" y2="917"/>
    <line class="cls-1" x1="15" y1="928" x2="825" y2="928"/>
    <line class="cls-1" x1="825" y1="924" x2="832" y2="924"/>
    <line class="cls-1" x1="834" y1="915" x2="834" y2="922"/>
    <line class="cls-1" x1="821" y1="913" x2="825" y2="913"/>
    <line class="cls-1" x1="827" y1="911" x2="827" y2="769"/>
    <line class="cls-1" x1="773" y1="763" x2="821" y2="763"/>
    <line class="cls-1" x1="821" y1="767" x2="825" y2="767"/>
    <line class="cls-1" x1="769" y1="759" x2="773" y2="759"/>
    <line class="cls-1" x1="767" y1="743" x2="767" y2="757"/>
    <line class="cls-1" x1="769" y1="741" x2="773" y2="741"/>
    <line class="cls-1" x1="773" y1="737" x2="821" y2="737"/>
    <line class="cls-1" x1="821" y1="733" x2="825" y2="733"/>
    <line class="cls-1" x1="827" y1="589" x2="827" y2="731"/>
    <line class="cls-1" x1="821" y1="587" x2="825" y2="587"/>
    <line class="cls-1" x1="683" y1="583" x2="821" y2="583"/>
    <line class="cls-1" x1="679" y1="579" x2="683" y2="579"/>
    <line class="cls-1" x1="838" y1="585" x2="838" y2="915"/>
    <line class="cls-1" x1="834" y1="577" x2="834" y2="585"/>
    <line class="cls-1" x1="825" y1="575" x2="832" y2="575"/>
    <line class="cls-1" x1="690" y1="571" x2="825" y2="571"/>
    <line class="cls-1" x1="688" y1="569" x2="688" y2="480"/>
    <line class="cls-1" x1="677" y1="473" x2="677" y2="577"/>
    <line class="cls-1" x1="679" y1="471" x2="683" y2="471"/>
    <line class="cls-1" x1="683" y1="467" x2="840" y2="467"/>
    <line class="cls-1" x1="690" y1="478" x2="840" y2="478"/>
  </g>
  <g id="Layer_2" data-name="Layer 2">
    <line class="cls-1" x1="19" y1="13.5" x2="402" y2="13"/>
    <g>
      <line class="cls-1" x1="82.5" y1="76.5" x2="157.5" y2="76.5"/>
      <line class="cls-1" x1="76.5" y1="82.5" x2="76.5" y2="127.5"/>
      <line class="cls-1" x1="163.5" y1="82.5" x2="163.5" y2="127.5"/>
      <line class="cls-1" x1="82.5" y1="133.5" x2="157.5" y2="133.5"/>
      <line class="cls-1" x1="78.5" y1="129.5" x2="82.5" y2="129.5"/>
      <line class="cls-1" x1="157.5" y1="129.5" x2="161.5" y2="129.5"/>
      <line class="cls-1" x1="157.5" y1="80.5" x2="161.5" y2="80.5"/>
      <line class="cls-1" x1="78.5" y1="80.5" x2="82.5" y2="80.5"/>
    </g>
    <g>
      <line class="cls-1" x1="683" y1="77" x2="758" y2="77"/>
      <line class="cls-1" x1="677" y1="83" x2="677" y2="128"/>
      <line class="cls-1" x1="764" y1="83" x2="764" y2="128"/>
      <line class="cls-1" x1="683" y1="134" x2="758" y2="134"/>
      <line class="cls-1" x1="679" y1="130" x2="683" y2="130"/>
      <line class="cls-1" x1="758" y1="130" x2="762" y2="130"/>
      <line class="cls-1" x1="758" y1="81" x2="762" y2="81"/>
      <line class="cls-1" x1="679" y1="81" x2="683" y2="81"/>
    </g>
    <g>
      <line class="cls-1" x1="233" y1="77" x2="338" y2="77"/>
      <line class="cls-1" x1="229" y1="81" x2="233" y2="81"/>
      <line class="cls-1" x1="338" y1="81" x2="342" y2="81"/>
      <line class="cls-1" x1="343" y1="83" x2="343" y2="128"/>
      <line class="cls-1" x1="227" y1="83" x2="227" y2="128"/>
      <line class="cls-1" x1="229" y1="130" x2="233" y2="130"/>
      <line class="cls-1" x1="233" y1="134" x2="337" y2="134"/>
      <line class="cls-1" x1="337" y1="130" x2="341" y2="130"/>
    </g>
    <g>
      <line class="cls-1" x1="503" y1="77" x2="608" y2="77"/>
      <line class="cls-1" x1="499" y1="81" x2="503" y2="81"/>
      <line class="cls-1" x1="608" y1="81" x2="612" y2="81"/>
      <line class="cls-1" x1="613" y1="83" x2="613" y2="128"/>
      <line class="cls-1" x1="497" y1="83" x2="497" y2="128"/>
      <line class="cls-1" x1="499" y1="130" x2="503" y2="130"/>
      <line class="cls-1" x1="503" y1="134" x2="607" y2="134"/>
      <line class="cls-1" x1="607" y1="130" x2="611" y2="130"/>
    </g>
    <g>
      <line class="cls-1" x1="83" y1="197" x2="157" y2="197"/>
      <line class="cls-1" x1="79" y1="201" x2="83" y2="201"/>
      <line class="cls-1" x1="157" y1="201" x2="161" y2="201"/>
      <line class="cls-1" x1="163" y1="203" x2="163" y2="217"/>
      <line class="cls-1" x1="158" y1="219" x2="161" y2="219"/>
      <line class="cls-1" x1="83" y1="223" x2="158" y2="223"/>
      <line class="cls-1" x1="77" y1="203" x2="77" y2="217"/>
      <line class="cls-1" x1="79" y1="219" x2="83" y2="219"/>
    </g>
    <g>
      <line class="cls-1" x1="683" y1="197" x2="757" y2="197"/>
      <line class="cls-1" x1="679" y1="201" x2="683" y2="201"/>
      <line class="cls-1" x1="757" y1="201" x2="761" y2="201"/>
      <line class="cls-1" x1="763" y1="203" x2="763" y2="217"/>
      <line class="cls-1" x1="758" y1="219" x2="761" y2="219"/>
      <line class="cls-1" x1="683" y1="223" x2="758" y2="223"/>
      <line class="cls-1" x1="677" y1="203" x2="677" y2="217"/>
      <line class="cls-1" x1="679" y1="219" x2="683" y2="219"/>
    </g>
    <g>
      <line class="cls-1" x1="323" y1="197" x2="517" y2="197"/>
      <line class="cls-1" x1="517" y1="201" x2="521" y2="201"/>
      <line class="cls-1" x1="523" y1="203" x2="523" y2="218"/>
      <line class="cls-1" x1="518" y1="220" x2="521" y2="220"/>
      <line class="cls-1" x1="439" y1="224" x2="518" y2="224"/>
      <line class="cls-1" x1="319" y1="201" x2="323" y2="201"/>
      <path class="cls-1" d="M317,205" transform="translate(0 -2)"/>
      <line class="cls-1" x1="322" y1="224" x2="401" y2="224"/>
      <line class="cls-1" x1="401" y1="228" x2="405" y2="228"/>
      <line class="cls-1" x1="439" y1="228" x2="435" y2="228"/>
      <line class="cls-1" x1="317" y1="203" x2="317" y2="218"/>
      <line class="cls-1" x1="319" y1="220" x2="322" y2="220"/>
      <line class="cls-1" x1="407" y1="230" x2="407" y2="307"/>
      <line class="cls-1" x1="433" y1="230" x2="433" y2="307"/>
      <line class="cls-1" x1="409" y1="309" x2="413" y2="309"/>
      <line class="cls-1" x1="427" y1="309" x2="431" y2="309"/>
      <line class="cls-1" x1="413" y1="313" x2="427" y2="313"/>
    </g>
    <g>
      <line class="cls-1" x1="226.27" y1="396.56" x2="227.73" y2="202.57"/>
      <line class="cls-1" x1="231.73" y1="202.6" x2="231.76" y2="198.6"/>
      <line class="cls-1" x1="233.78" y1="196.61" x2="248.78" y2="196.72"/>
      <line class="cls-1" x1="250.74" y1="201.74" x2="250.76" y2="198.74"/>
      <line class="cls-1" x1="254.14" y1="280.77" x2="254.74" y2="201.77"/>
      <line class="cls-1" x1="230.24" y1="400.59" x2="230.27" y2="396.59"/>
      <path class="cls-1" d="M232.23,404.61" transform="translate(0 -2)"/>
      <line class="cls-1" x1="253.26" y1="397.76" x2="253.86" y2="318.77"/>
      <line class="cls-1" x1="257.86" y1="318.8" x2="257.89" y2="314.8"/>
      <line class="cls-1" x1="258.14" y1="280.8" x2="258.11" y2="284.8"/>
      <line class="cls-1" x1="232.23" y1="402.61" x2="247.23" y2="402.72"/>
      <line class="cls-1" x1="249.24" y1="400.73" x2="249.26" y2="397.73"/>
      <line class="cls-1" x1="259.9" y1="312.81" x2="336.9" y2="313.39"/>
      <line class="cls-1" x1="260.1" y1="286.81" x2="337.1" y2="287.39"/>
      <line class="cls-1" x1="338.92" y1="311.41" x2="338.95" y2="307.41"/>
      <line class="cls-1" x1="339.05" y1="293.41" x2="339.08" y2="289.41"/>
      <line class="cls-1" x1="342.95" y1="307.44" x2="343.05" y2="293.44"/>
    </g>
    <g>
      <line class="cls-1" x1="612.95" y1="203.11" x2="613.69" y2="397.11"/>
      <line class="cls-1" x1="609.69" y1="397.13" x2="609.7" y2="401.13"/>
      <line class="cls-1" x1="607.71" y1="403.14" x2="592.71" y2="403.19"/>
      <line class="cls-1" x1="590.69" y1="398.2" x2="590.7" y2="401.2"/>
      <line class="cls-1" x1="586.39" y1="319.22" x2="586.69" y2="398.22"/>
      <line class="cls-1" x1="608.94" y1="199.13" x2="608.95" y2="203.13"/>
      <path class="cls-1" d="M606.93,199.14" transform="translate(0 -2)"/>
      <line class="cls-1" x1="585.95" y1="202.22" x2="586.25" y2="281.22"/>
      <line class="cls-1" x1="582.25" y1="281.23" x2="582.26" y2="285.23"/>
      <line class="cls-1" x1="582.39" y1="319.23" x2="582.38" y2="315.23"/>
      <line class="cls-1" x1="606.93" y1="197.14" x2="591.93" y2="197.19"/>
      <line class="cls-1" x1="589.94" y1="199.2" x2="589.95" y2="202.2"/>
      <line class="cls-1" x1="580.27" y1="287.24" x2="503.27" y2="287.53"/>
      <line class="cls-1" x1="580.37" y1="313.24" x2="503.37" y2="313.53"/>
      <line class="cls-1" x1="501.28" y1="289.54" x2="501.29" y2="293.54"/>
      <line class="cls-1" x1="501.35" y1="307.54" x2="501.36" y2="311.54"/>
      <line class="cls-1" x1="497.29" y1="293.55" x2="497.35" y2="307.55"/>
    </g>
    <g>
      <line class="cls-1" x1="323" y1="557" x2="517" y2="557"/>
      <line class="cls-1" x1="517" y1="561" x2="521" y2="561"/>
      <line class="cls-1" x1="523" y1="563" x2="523" y2="578"/>
      <line class="cls-1" x1="518" y1="580" x2="521" y2="580"/>
      <line class="cls-1" x1="439" y1="584" x2="518" y2="584"/>
      <line class="cls-1" x1="319" y1="561" x2="323" y2="561"/>
      <path class="cls-1" d="M317,565" transform="translate(0 -2)"/>
      <line class="cls-1" x1="322" y1="584" x2="401" y2="584"/>
      <line class="cls-1" x1="401" y1="588" x2="405" y2="588"/>
      <line class="cls-1" x1="439" y1="588" x2="435" y2="588"/>
      <line class="cls-1" x1="317" y1="563" x2="317" y2="578"/>
      <line class="cls-1" x1="319" y1="580" x2="322" y2="580"/>
      <line class="cls-1" x1="407" y1="590" x2="407" y2="667"/>
      <line class="cls-1" x1="433" y1="590" x2="433" y2="667"/>
      <line class="cls-1" x1="409" y1="669" x2="413" y2="669"/>
      <line class="cls-1" x1="427" y1="669" x2="431" y2="669"/>
      <line class="cls-1" x1="413" y1="673" x2="427" y2="673"/>
    </g>
    <g>
      <line class="cls-1" x1="323" y1="737" x2="517" y2="737"/>
      <line class="cls-1" x1="517" y1="741" x2="521" y2="741"/>
      <line class="cls-1" x1="523" y1="743" x2="523" y2="758"/>
      <line class="cls-1" x1="518" y1="760" x2="521" y2="760"/>
      <line class="cls-1" x1="439" y1="764" x2="518" y2="764"/>
      <line class="cls-1" x1="319" y1="741" x2="323" y2="741"/>
      <path class="cls-1" d="M317,745" transform="translate(0 -2)"/>
      <line class="cls-1" x1="322" y1="764" x2="401" y2="764"/>
      <line class="cls-1" x1="401" y1="768" x2="405" y2="768"/>
      <line class="cls-1" x1="439" y1="768" x2="435" y2="768"/>
      <line class="cls-1" x1="317" y1="743" x2="317" y2="758"/>
      <line class="cls-1" x1="319" y1="760" x2="322" y2="760"/>
      <line class="cls-1" x1="407" y1="770" x2="407" y2="847"/>
      <line class="cls-1" x1="433" y1="770" x2="433" y2="847"/>
      <line class="cls-1" x1="409" y1="849" x2="413" y2="849"/>
      <line class="cls-1" x1="427" y1="849" x2="431" y2="849"/>
      <line class="cls-1" x1="413" y1="853" x2="427" y2="853"/>
    </g>
    <g>
      <line class="cls-1" x1="227" y1="473" x2="227" y2="578"/>
      <line class="cls-1" x1="229" y1="471" x2="233" y2="471"/>
      <line class="cls-1" x1="233" y1="467" x2="247" y2="467"/>
      <line class="cls-1" x1="247" y1="471" x2="251" y2="471"/>
      <line class="cls-1" x1="253" y1="473" x2="253" y2="578"/>
      <line class="cls-1" x1="229" y1="580" x2="233" y2="580"/>
      <line class="cls-1" x1="247" y1="580" x2="251" y2="580"/>
      <line class="cls-1" x1="233" y1="584" x2="247" y2="584"/>
    </g>
    <g>
      <line class="cls-1" x1="587" y1="473" x2="587" y2="578"/>
      <line class="cls-1" x1="589" y1="471" x2="593" y2="471"/>
      <line class="cls-1" x1="593" y1="467" x2="607" y2="467"/>
      <line class="cls-1" x1="607" y1="471" x2="611" y2="471"/>
      <line class="cls-1" x1="613" y1="473" x2="613" y2="578"/>
      <line class="cls-1" x1="589" y1="580" x2="593" y2="580"/>
      <line class="cls-1" x1="607" y1="580" x2="611" y2="580"/>
      <line class="cls-1" x1="593" y1="584" x2="607" y2="584"/>
    </g>
    <g>
      <line class="cls-1" x1="337.65" y1="648.13" x2="232.66" y2="646.87"/>
      <line class="cls-1" x1="339.63" y1="650.15" x2="339.58" y2="654.15"/>
      <line class="cls-1" x1="343.58" y1="654.2" x2="343.41" y2="668.2"/>
      <line class="cls-1" x1="339.41" y1="668.15" x2="339.36" y2="672.15"/>
      <line class="cls-1" x1="337.34" y1="674.13" x2="232.35" y2="672.87"/>
      <line class="cls-1" x1="230.64" y1="648.85" x2="230.59" y2="652.85"/>
      <line class="cls-1" x1="230.42" y1="666.85" x2="230.37" y2="670.85"/>
      <line class="cls-1" x1="226.59" y1="652.8" x2="226.42" y2="666.8"/>
    </g>
    <g>
      <line class="cls-1" x1="608.65" y1="648.13" x2="503.66" y2="646.87"/>
      <line class="cls-1" x1="610.63" y1="650.15" x2="610.58" y2="654.15"/>
      <line class="cls-1" x1="614.58" y1="654.2" x2="614.41" y2="668.2"/>
      <line class="cls-1" x1="610.41" y1="668.15" x2="610.36" y2="672.15"/>
      <line class="cls-1" x1="608.34" y1="674.13" x2="503.35" y2="672.87"/>
      <line class="cls-1" x1="501.64" y1="648.85" x2="501.59" y2="652.85"/>
      <line class="cls-1" x1="501.42" y1="666.85" x2="501.37" y2="670.85"/>
      <line class="cls-1" x1="497.59" y1="652.8" x2="497.42" y2="666.8"/>
    </g>
  </g>
</svg>
